# xmcd CD database file
#
# Track frame offsets:
#	150
#	15125
#	35960
#	50450
#	63905
#	78280
#	100745
#	110795
#	125605
#	141610
#	159090
#	173495
#	187840
#
# Disc length: 2701 seconds
#
# Revision: 0
# Processed by: cddbd v1.4PL0 Copyright (c) Steve Scherf et al.
# Submitted via: CDex 1.50
#
DISCID=a20a8b0d
DTITLE=Ruzni - Zlate trampske casy
DYEAR=1995
DGENRE=Country
TTITLE0=Mrtvej vlak
TTITLE1=Ascalona
TTITLE2=Hej koci
TTITLE3=Kruta valka
TTITLE4=Velrybarska vyprava
TTITLE5=Montgomerry
TTITLE6=Rovnou
TTITLE7=Toulavej
TTITLE8=Laredo
TTITLE9=Az stichnou bile skaly
TTITLE10=Tommy
TTITLE11=Frankie Dlouhan
TTITLE12=Island
EXTD=YEAR: 1995
EXTT0=
EXTT1=
EXTT2=
EXTT3=
EXTT4=
EXTT5=
EXTT6=
EXTT7=
EXTT8=
EXTT9=
EXTT10=
EXTT11=
EXTT12=
PLAYORDER=
